<svg xmlns="http://www.w3.org/2000/svg" viewBox="0 0 7120 6760"><g id="l5f1lootOp4DOdUiPAOGBHI" fill="#707aff" style="transform: none;"><g><path id="p1AlMsLZ7w" d="M2075 6651 c-6 -5 -27 -14 -47 -20 -20 -7 -54 -24 -75 -38 -21 -15 -51 -29 -68 -32 -22 -5 -35 -18 -55 -56 -23 -45 -25 -61 -25 -165 0 -123 9 -152 58 -198 17 -16 41 -25 81 -29 56 -6 56 -6 56 -39 0 -98 45 -185 113 -221 18 -9 59 -19 92 -22 l60 -6 5 -78 c3 -44 2 -81 -3 -84 -4 -2 -21 -2 -37 2 -35 8 -41 40 -10 50 27 9 25 34 -2 39 -13 3 -57 8 -98 11 -41 4 -113 15 -160 25 -109 24 -270 47 -385 55 -49 3 -151 15 -225 25 -74 10 -183 22 -243 26 -59 3 -109 9 -111 13 -2 3 -1 34 3 68 l6 63 81 39 c87 42 124 80 124 128 0 31 -26 152 -42 195 -6 15 -30 46 -54 68 -51 47 -79 50 -209 24 -93 -19 -119 -41 -134 -114 -13 -63 1 -177 31 -242 22 -47 32 -58 72 -74 l46 -19 0 -81 c0 -48 5 -87 13 -97 9 -13 41 -19 137 -27 118 -9 165 -16 268 -38 24 -5 93 -10 152 -11 76 -2 119 -7 140 -18 55 -27 22 -36 -100 -28 -70 5 -107 11 -99 16 10 6 8 9 -8 9 -13 0 -23 -4 -23 -9 0 -4 -19 -7 -42 -5 -83 7 -361 3 -411 -7 -27 -5 -89 -9 -138 -9 -128 0 -346 -61 -375 -105 -30 -47 -169 -1043 -149 -1075 2 -4 112 -6 242 -4 218 3 234 2 193 -11 -71 -23 -187 -38 -290 -39 -77 -1 -95 -4 -95 -16 0 -12 13 -14 68 -12 82 4 87 -9 28 -73 -47 -51 -62 -101 -64 -206 0 -62 4 -82 21 -110 12 -19 30 -47 39 -64 34 -57 110 -120 198 -164 84 -42 90 -43 152 -37 80 8 118 23 163 65 19 17 60 44 90 59 67 33 122 87 154 149 25 49 62 91 72 80 6 -6 -20 -181 -41 -272 -7 -33 -16 -109 -19 -170 -4 -60 -9 -128 -12 -151 -7 -49 -1 -53 96 -61 52 -4 68 -2 78 10 11 13 9 18 -8 30 -17 12 -27 12 -58 2 -20 -7 -40 -11 -44 -8 -15 8 -8 58 12 90 18 30 22 32 47 22 16 -5 42 -25 59 -44 41 -46 105 -88 116 -77 5 5 -7 23 -28 43 -20 19 -47 44 -60 56 -34 31 -30 41 21 64 51 22 46 11 70 192 9 71 19 135 22 143 4 12 0 15 -18 12 -21 -3 -25 -11 -35 -74 -7 -39 -17 -88 -23 -110 -6 -21 -11 -54 -11 -72 0 -61 -13 -72 -83 -72 -68 1 -97 15 -97 48 0 12 9 61 20 109 12 48 24 128 27 179 5 83 4 93 -15 112 -11 11 -23 31 -27 44 -15 48 -109 214 -137 240 -15 15 -28 32 -28 37 0 15 362 15 377 0 6 -6 41 -14 78 -17 58 -4 68 -8 76 -28 7 -20 16 -24 47 -24 68 0 87 -25 108 -137 10 -54 22 -101 26 -104 11 -7 44 -64 64 -109 8 -19 22 -49 30 -67 24 -53 19 -67 -30 -82 -66 -19 -86 -9 -86 43 0 24 5 57 10 73 7 19 8 47 2 79 l-9 49 -12 -29 c-6 -15 -17 -70 -23 -120 -11 -88 -11 -93 10 -122 26 -35 39 -84 23 -84 -30 0 12 -144 45 -157 9 -3 27 0 41 6 22 10 25 16 20 46 -3 19 -1 37 4 40 21 13 8 51 -28 79 -36 29 -36 25 -3 -24 17 -25 17 -50 -1 -50 -5 0 -9 6 -9 14 0 7 -7 19 -16 26 -28 24 -13 63 33 84 24 11 45 28 49 38 12 39 24 15 24 -49 0 -79 11 -103 37 -87 23 15 40 73 50 179 7 81 10 90 28 90 18 0 20 -7 20 -77 0 -66 3 -80 20 -92 63 -45 60 -39 56 -119 -3 -90 8 -117 49 -117 34 0 38 11 35 90 -3 79 -2 76 -35 90 -39 16 -38 27 3 38 26 7 34 15 44 48 26 88 54 225 65 316 9 79 14 97 29 101 20 5 44 -16 35 -31 -3 -5 -12 -64 -20 -133 -9 -68 -22 -148 -30 -177 -8 -29 -18 -82 -21 -117 -7 -61 -6 -65 16 -74 132 -53 270 -101 294 -101 17 0 80 -9 140 -20 184 -34 178 -34 203 -14 25 20 30 54 55 354 l12 135 30 -2 c17 -1 71 -5 121 -9 87 -6 92 -6 103 14 16 30 -1 159 -39 304 -17 64 -44 197 -60 295 -17 98 -37 212 -45 253 -7 41 -17 100 -21 130 -3 30 -19 118 -35 195 -16 76 -29 140 -29 142 0 2 -11 3 -25 3 -42 0 -192 37 -323 79 -68 22 -140 43 -160 47 -20 4 -51 13 -69 21 -18 7 -49 13 -70 13 -21 0 -44 4 -52 9 -14 9 -30 75 -31 129 l0 32 58 0 c32 0 124 -11 205 -24 143 -24 202 -32 476 -61 78 -8 137 -19 142 -26 4 -7 10 -37 13 -68 4 -31 24 -202 46 -381 21 -179 46 -392 55 -475 48 -470 125 -864 211 -1082 24 -62 44 -115 44 -119 0 -11 91 -157 118 -189 14 -16 39 -38 55 -49 24 -14 28 -20 16 -26 -8 -4 -198 -13 -424 -19 -361 -10 -416 -10 -461 4 -61 18 -160 82 -202 129 -28 32 -34 50 -61 186 -12 60 -41 91 -66 70 -9 -8 -24 -6 -54 6 -23 9 -44 14 -46 12 -10 -9 25 -104 55 -151 16 -26 39 -65 50 -86 10 -22 55 -75 99 -119 l79 -80 -24 -23 c-32 -30 -30 -51 6 -104 39 -57 80 -72 153 -54 31 8 62 23 78 39 l25 27 413 7 c227 4 438 11 469 17 34 5 60 5 66 -1 5 -5 14 -3 23 6 22 22 134 19 175 -5 25 -15 55 -21 122 -22 l89 -3 34 39 c28 33 33 46 33 89 0 63 -24 106 -80 141 -53 34 -88 40 -148 25 -36 -8 -61 -23 -92 -55 -54 -55 -87 -63 -143 -36 -83 42 -192 171 -238 282 -15 36 -34 81 -44 98 -34 66 -67 190 -86 321 -24 161 -35 213 -53 249 -24 46 -45 191 -61 411 -17 220 -40 473 -75 800 -11 102 -25 250 -31 330 l-11 145 38 80 c32 66 38 90 38 140 -1 98 -19 143 -83 208 -63 62 -101 74 -121 37 -12 -22 -35 -26 -46 -9 -4 7 3 19 16 29 37 28 17 44 -44 36 -28 -4 -72 -8 -97 -10 -52 -3 -85 -21 -153 -84 -72 -66 -88 -107 -88 -224 0 -109 15 -153 75 -216 53 -56 101 -75 207 -81 l95 -6 3 -34 3 -34 -73 6 c-40 4 -108 18 -152 32 -43 14 -124 32 -180 40 -55 8 -156 24 -222 36 l-122 22 1 101 c2 158 -15 188 -115 201 -27 3 -48 8 -48 10 0 3 14 38 30 80 17 42 30 85 30 96 0 54 -100 188 -156 209 -32 12 -67 13 -79 1z m76 -78 c37 -36 39 -40 29 -69 -6 -17 -22 -37 -36 -44 -23 -13 -27 -11 -62 23 -21 20 -43 37 -50 37 -7 0 -12 13 -12 29 0 22 7 34 28 44 43 23 60 20 103 -20z m-131 -140 c0 -43 -7 -72 -28 -113 l-27 -55 -3 89 c-3 80 -1 91 19 112 13 13 26 24 31 24 4 0 8 -26 8 -57z m1020 28 c0 -10 -7 -25 -16 -32 -21 -17 -54 -93 -54 -124 0 -33 -10 -55 -25 -55 -17 0 -25 23 -25 72 0 50 39 121 78 142 36 20 42 20 42 -3z m-812 -88 c-12 -120 -124 -253 -165 -197 -21 29 -15 42 32 70 48 28 85 67 85 91 0 24 29 83 41 83 8 0 10 -15 7 -47z m959 0 c10 -25 10 -34 -1 -49 -12 -15 -16 -16 -30 -5 -9 7 -16 28 -16 46 0 55 26 60 47 8z m-2101 -10 c24 -21 44 -41 44 -45 0 -13 -20 -9 -36 7 -9 8 -33 18 -55 21 -44 7 -52 15 -43 38 10 26 42 18 90 -21z m2170 -80 c4 -14 2 -34 -4 -43 -9 -14 -7 -22 9 -36 34 -30 14 -96 -25 -81 -19 7 -25 63 -10 92 7 14 8 27 2 33 -11 11 0 62 13 62 5 0 12 -12 15 -27z m-187 -18 c10 -28 10 -39 1 -50 -30 -36 -55 -6 -44 51 8 44 27 43 43 -1z m-2039 5 c0 -5 -7 -10 -14 -10 -13 0 -13 -5 0 -36 18 -43 15 -89 -6 -89 -11 0 -16 15 -18 59 -2 32 -1 65 2 72 6 16 36 19 36 4z m115 -69 c-11 -51 -84 -94 -98 -57 -3 8 1 20 9 26 8 7 14 20 14 30 0 9 10 30 21 44 22 28 22 28 41 8 15 -15 18 -27 13 -51z m1200 -109 c-5 -27 -10 -33 -26 -29 -25 7 -25 -9 1 -23 13 -7 20 -21 20 -39 0 -23 -5 -30 -25 -33 -35 -7 -48 14 -41 64 3 24 6 62 5 86 0 32 4 44 18 48 10 3 25 9 33 13 12 7 16 1 18 -22 2 -17 1 -46 -3 -65z m804 44 c10 -12 9 -27 -5 -70 -17 -53 -19 -55 -36 -39 -25 22 -25 98 0 112 23 14 28 13 41 -3z m-1020 -10 c8 -10 9 -16 1 -21 -5 -3 -10 -23 -10 -44 0 -25 -7 -44 -19 -55 -19 -17 -20 -17 -30 18 -19 72 22 145 58 102z m1113 -92 c-19 -49 -19 -61 0 -101 6 -12 8 -32 5 -44 -3 -13 -1 -29 5 -36 6 -8 7 -17 3 -21 -4 -4 -10 -1 -13 7 -3 8 -16 25 -29 37 -24 22 -24 23 -7 49 16 25 16 27 -5 56 -19 26 -21 35 -12 61 6 18 19 40 28 50 14 16 19 17 30 5 12 -12 11 -21 -5 -63z m-1019 14 c6 -46 -4 -60 -38 -56 -15 2 -21 12 -23 36 -5 47 3 62 31 62 21 0 25 -6 30 -42z m957 -85 c0 -13 -3 -13 -15 -3 -8 7 -12 16 -9 21 8 13 24 1 24 -18z m-960 -28 c24 -28 4 -46 -46 -43 -52 3 -82 30 -54 48 23 15 86 12 100 -5z m285 -36 c66 -10 156 -23 200 -28 90 -11 246 -38 252 -45 11 -10 -88 -18 -166 -12 -86 7 -254 29 -344 47 -26 5 -77 9 -112 9 -56 0 -64 3 -70 21 -14 43 15 44 240 8z m-1125 -224 c5 -3 0 -20 -10 -38 -14 -22 -20 -50 -20 -87 0 -30 -5 -133 -12 -228 l-12 -172 -168 2 c-161 3 -168 4 -167 23 0 11 7 97 15 190 22 250 22 240 0 240 -10 0 -22 -7 -27 -15 -4 -8 -15 -108 -25 -222 l-17 -208 -83 0 c-45 0 -117 -5 -159 -11 -42 -6 -79 -9 -81 -6 -8 7 38 362 48 375 6 7 37 12 77 13 105 0 145 10 149 37 4 27 -16 29 -78 7 -45 -16 -112 -19 -144 -6 -12 5 -39 0 -68 -11 -27 -10 -70 -19 -96 -21 -46 -2 -47 -1 -50 29 -2 19 3 35 15 45 16 14 177 46 353 70 61 8 545 3 560 -6z m628 -19 c31 -8 107 -25 167 -36 61 -12 126 -26 145 -30 19 -5 64 -15 100 -23 36 -9 97 -26 135 -40 39 -14 106 -33 150 -43 88 -19 110 -31 96 -48 -17 -21 -23 -181 -12 -337 6 -86 9 -164 5 -172 -5 -14 -11 -14 -57 5 -29 11 -70 24 -92 29 -22 5 -49 11 -60 14 -19 4 -20 12 -20 255 0 208 -2 252 -15 260 -8 5 -18 6 -23 3 -4 -3 -5 -96 -1 -207 4 -112 4 -220 0 -240 -7 -37 -8 -38 -44 -31 -20 4 -49 13 -64 21 -15 8 -44 14 -64 14 l-36 0 7 234 c7 235 4 276 -19 276 -21 0 -26 -58 -26 -284 0 -179 -2 -207 -15 -202 -33 12 -229 46 -271 46 -37 0 -44 -3 -44 -19 0 -11 4 -22 9 -25 5 -3 70 -19 145 -35 75 -16 143 -35 152 -42 14 -12 16 -34 10 -174 -3 -88 -11 -177 -17 -199 -7 -26 -7 -42 0 -49 32 -32 55 63 66 277 3 60 8 112 10 116 7 12 154 -26 175 -45 19 -17 20 -32 20 -231 0 -198 5 -242 27 -220 3 3 7 100 7 215 1 115 3 212 7 215 6 6 192 -40 221 -55 20 -11 21 -18 15 -163 -3 -83 -11 -173 -18 -199 -9 -33 -10 -53 -3 -64 16 -26 26 -20 40 25 7 24 19 51 28 61 11 12 17 52 22 156 3 77 8 143 10 146 3 6 144 -18 152 -26 10 -10 21 -99 28 -230 3 -77 11 -149 16 -159 10 -18 11 -18 20 -1 13 21 3 238 -18 405 -14 115 -19 228 -9 218 3 -3 12 -43 20 -89 8 -46 21 -106 29 -134 8 -27 27 -119 41 -202 15 -84 35 -187 44 -228 10 -42 15 -77 11 -80 -8 -5 -95 11 -245 44 -274 61 -325 72 -380 87 -33 8 -118 28 -190 43 -71 16 -170 40 -220 54 -49 14 -137 37 -195 52 -58 14 -109 30 -113 34 -8 8 8 251 39 586 9 94 17 235 17 315 l2 145 -38 -1 c-57 -2 -77 -26 -77 -93 0 -52 -15 -264 -26 -356 l-4 -40 -196 0 -196 0 6 70 c15 157 25 382 19 419 l-6 38 272 -6 c187 -4 290 -10 329 -20z m-132 -144 c8 -5 9 -37 3 -112 -5 -58 -11 -136 -14 -175 -16 -211 -27 -319 -35 -341 -6 -14 -10 -72 -10 -128 0 -90 -3 -105 -20 -121 -25 -22 -49 -14 -44 17 17 116 35 284 39 383 4 66 15 196 26 288 10 93 19 175 19 183 0 15 18 18 36 6z m1424 -41 c0 -15 4 -31 9 -36 16 -16 34 -176 22 -188 -15 -15 -14 -27 3 -27 28 0 36 -105 12 -161 -12 -29 -16 -31 -22 -15 -5 12 -2 21 9 28 21 11 22 28 2 28 -16 0 -18 9 -45 223 -25 195 -25 204 -5 187 8 -7 15 -24 15 -39z m-2707 32 c5 -8 -18 -290 -29 -351 -4 -28 -9 -33 -26 -29 -11 3 -45 1 -76 -4 -30 -6 -58 -7 -63 -2 -4 4 -1 42 7 83 8 41 21 119 29 174 8 54 16 100 18 102 21 21 131 42 140 27z m2271 -62 c13 -6 48 -12 76 -14 29 -3 57 -10 64 -16 6 -7 14 -64 18 -134 3 -67 9 -144 12 -172 5 -37 4 -45 -4 -30 -10 20 -5 -149 6 -207 7 -34 -2 -35 -99 -12 -39 10 -71 24 -76 33 -5 9 -11 130 -15 270 -3 150 -10 259 -16 265 -24 24 -8 32 34 17z m-1108 -468 c-4 -76 -12 -181 -19 -233 l-13 -95 -197 -3 -198 -2 7 52 c3 29 10 69 15 88 5 19 14 94 20 165 6 72 14 134 19 139 5 5 80 12 167 16 87 4 169 8 182 8 l24 2 -7 -137z m-841 77 c-1 -53 -21 -222 -36 -297 -10 -50 -6 -93 9 -93 17 0 62 172 72 275 17 175 -7 155 192 155 l171 0 -7 -72 c-3 -40 -9 -141 -13 -225 -5 -119 -9 -153 -20 -158 -8 -3 -18 -3 -21 -1 -4 2 -117 0 -252 -4 -135 -5 -341 -12 -459 -15 l-214 -7 7 74 c4 40 13 140 21 221 7 81 15 150 17 153 5 5 160 25 164 21 1 -1 -1 -34 -6 -72 -25 -187 -41 -337 -37 -341 12 -12 35 11 40 39 28 151 47 281 47 325 0 34 4 52 13 53 37 4 256 16 282 15 29 -1 30 -3 30 -46z m2434 -108 c1 -7 -3 -10 -9 -7 -5 3 -10 18 -9 33 0 24 1 25 9 7 5 -11 9 -26 9 -33z m-1507 -379 c10 -9 18 -22 18 -29 0 -7 8 -10 21 -7 15 4 22 0 26 -16 5 -22 36 -35 69 -30 29 4 64 -11 64 -28 0 -12 -7 -13 -42 -6 -24 4 -70 7 -103 6 -169 -5 -220 -2 -262 19 -24 11 -43 24 -43 29 0 5 32 9 72 9 53 0 76 -4 90 -17 10 -9 21 -13 25 -10 9 10 -18 57 -34 57 -7 0 -13 5 -13 10 0 6 9 10 19 10 11 0 23 5 26 10 10 15 46 12 67 -7z m-816 -6 c4 -4 -22 -6 -57 -6 -51 1 -57 3 -29 8 44 8 77 7 86 -2z m-163 -4 c-13 -2 -33 -2 -45 0 -13 2 -3 4 22 4 25 0 35 -2 23 -4z m2 -68 c0 -5 -19 -11 -42 -13 -40 -3 -58 10 -30 22 20 8 72 2 72 -9z m-105 -5 c12 -8 9 -10 -12 -10 -16 0 -28 5 -28 10 0 13 20 13 40 0z m1500 -31 c42 -13 54 -29 20 -29 -25 0 -26 -17 -2 -23 36 -10 -55 -6 -98 4 -47 11 -60 22 -60 53 0 17 6 18 50 13 27 -3 67 -11 90 -18z m-435 -29 c3 -5 25 -7 48 -4 51 7 156 -11 175 -30 12 -12 13 -37 6 -138 l-9 -123 -45 -3 c-25 -2 -62 2 -83 8 -55 16 -87 86 -87 189 l0 74 -30 -7 c-23 -4 -32 -2 -37 10 -10 26 47 48 62 24z m675 -40 c65 -22 129 -35 264 -50 54 -7 117 -18 139 -26 47 -17 211 -51 275 -58 24 -2 50 -10 58 -16 19 -17 18 -49 -2 -57 -22 -8 -165 14 -209 33 -19 7 -45 14 -58 14 -14 0 -35 8 -48 19 -13 10 -46 21 -74 24 -27 4 -70 11 -95 16 -25 5 -73 14 -108 20 -35 7 -71 16 -80 20 -9 5 -60 17 -112 26 -113 21 -130 28 -123 53 4 17 10 18 61 10 31 -4 82 -17 112 -28z m-1680 -15 c0 -16 -17 -19 -44 -9 -26 10 -18 24 14 24 20 0 30 -5 30 -15z m1438 -45 c4 -38 -30 -242 -55 -331 -19 -67 -45 -89 -74 -63 -27 24 -28 17 28 144 12 26 15 67 14 163 l-1 128 42 -3 c41 -3 43 -5 46 -38z m191 -9 c20 -13 7 -80 -18 -97 -11 -8 -22 -29 -26 -47 -7 -37 -25 -77 -35 -77 -4 0 -1 35 6 77 8 42 11 94 8 115 -6 37 -6 38 22 38 16 0 35 -4 43 -9z m109 -11 c24 -13 216 -60 247 -60 61 0 65 -10 64 -138 -1 -164 -12 -289 -26 -303 -10 -10 -38 -9 -130 5 -65 9 -130 19 -145 22 -17 3 -28 1 -28 -5 0 -12 6 -13 145 -36 55 -8 120 -20 144 -26 32 -7 46 -7 51 2 9 13 20 153 26 324 l5 120 26 -2 c46 -4 52 -10 48 -45 -3 -18 -9 -94 -15 -168 -6 -74 -16 -170 -22 -213 l-11 -79 -56 5 c-146 13 -355 51 -372 68 -9 9 -31 20 -49 24 -37 8 -48 29 -28 53 16 18 28 85 53 292 23 181 25 187 73 160z m-1918 -25 c17 -20 8 -50 -15 -50 -20 0 -31 25 -21 51 7 18 20 18 36 -1z m510 -161 c-19 -45 -32 -62 -69 -84 -25 -16 -47 -27 -50 -25 -2 3 12 24 31 47 19 24 42 57 52 75 15 30 46 57 55 48 2 -3 -7 -30 -19 -61z m-214 -156 c10 -16 -32 -48 -63 -48 -32 0 -28 30 7 47 31 16 47 16 56 1z m-168 -38 c24 -22 20 -50 -8 -50 -20 0 -35 15 -44 48 -6 17 -3 22 11 22 11 0 29 -9 41 -20z m2928 -377 c22 -22 17 -45 -8 -41 -26 4 -57 52 -69 109 -15 65 2 67 34 4 16 -32 35 -65 43 -72z m130 -314 c3 -6 2 -15 -4 -21 -11 -11 -92 8 -92 22 0 14 87 13 96 -1z m-1043 -63 c43 -38 34 -48 -26 -33 -24 6 -42 18 -47 31 -18 47 20 48 73 2z"/><path id="pxDhGDXcQ" d="M876 5464 c-8 -20 1 -34 20 -34 8 0 14 10 14 25 0 28 -24 34 -34 9z"/><path id="pmx6zawaz" d="M2635 5190 c-4 -6 -4 -22 -1 -36 5 -19 13 -24 37 -24 28 0 30 2 27 33 -2 26 -8 33 -30 35 -14 2 -29 -2 -33 -8z"/><path id="pn8IBrol7" d="M2615 4818 c-8 -31 10 -78 30 -78 23 0 20 63 -5 85 -18 17 -19 16 -25 -7z"/><path id="pgAmE1dRs" d="M1828 5107 c-5 -10 -8 -49 -7 -85 1 -65 1 -66 10 -27 11 47 8 140 -3 112z"/><path id="pVFbJwyER" d="M2560 4230 c0 -11 5 -20 10 -20 6 0 10 9 10 20 0 11 -4 20 -10 20 -5 0 -10 -9 -10 -20z"/><path id="p10paKp5zX" d="M5412 6351 c-45 -21 -85 -41 -89 -45 -4 -4 -6 -23 -4 -41 2 -34 2 -35 -28 -29 -40 8 -39 0 4 -79 19 -35 35 -70 35 -78 0 -7 16 -37 36 -66 34 -50 35 -55 35 -141 0 -89 0 -91 -55 -200 -30 -61 -58 -128 -61 -149 -15 -90 -7 -83 -95 -83 l-79 0 -10 38 c-21 82 -30 154 -36 292 -7 168 -15 193 -96 283 -51 58 -120 100 -204 127 -22 7 -51 20 -65 30 -36 24 -79 33 -96 19 -11 -9 -18 -8 -33 5 -15 13 -46 18 -142 23 -123 5 -124 5 -134 -18 -15 -35 -41 -35 -74 0 -34 37 -41 37 -151 8 -62 -16 -86 -27 -88 -40 -7 -37 148 -265 256 -375 90 -93 90 -102 -7 -165 -44 -29 -57 -68 -76 -231 -9 -72 -31 -200 -50 -286 -18 -85 -41 -193 -50 -240 -9 -47 -23 -116 -31 -155 -11 -48 -17 -157 -21 -352 l-6 -282 -57 0 c-107 1 -167 -57 -196 -188 -18 -80 -15 -142 12 -263 17 -76 72 -200 90 -200 6 0 15 16 18 35 6 28 14 38 43 50 51 21 122 19 158 -5 39 -26 71 -25 119 3 70 40 81 65 79 174 -3 93 -4 98 -41 157 -83 129 -143 264 -141 314 0 10 3 12 6 5 2 -7 11 -13 18 -13 18 0 23 20 14 54 -8 27 -17 110 -23 216 -2 25 1 80 5 123 6 60 14 85 32 107 21 25 25 43 32 137 5 79 14 123 31 165 28 66 31 142 9 203 -15 43 -20 132 -7 152 4 6 19 16 34 22 21 8 28 19 33 48 27 162 68 299 93 312 10 4 73 11 142 15 69 4 150 13 180 22 30 8 89 17 130 20 l75 6 43 -93 c49 -106 73 -197 75 -284 l2 -59 37 -11 c21 -6 44 -19 51 -29 19 -26 113 -29 131 -4 7 10 29 18 57 20 43 3 44 4 43 38 0 19 -4 42 -7 50 -5 10 12 49 44 105 29 50 61 119 73 155 15 47 28 68 46 77 38 19 46 1 28 -58 l-17 -50 48 44 c55 51 75 63 140 83 53 15 98 18 153 8 25 -4 47 -1 69 10 50 25 64 20 103 -34 31 -43 39 -65 51 -145 8 -52 19 -103 24 -114 6 -11 11 -42 11 -69 0 -40 5 -54 26 -76 26 -26 27 -27 22 -139 -3 -61 -3 -118 -1 -124 7 -20 23 -15 23 6 0 29 36 69 50 55 8 -8 7 -25 -6 -63 l-17 -52 27 -28 c30 -32 33 -61 11 -145 -16 -60 -14 -76 10 -76 21 0 30 -48 16 -87 -10 -27 -10 -41 -1 -64 8 -19 10 -50 6 -87 -4 -31 -11 -118 -16 -192 -5 -74 -12 -146 -16 -160 -7 -22 -6 -24 9 -12 24 20 46 88 57 177 5 44 14 100 19 125 13 57 14 301 2 332 -5 13 -12 99 -15 190 -4 92 -11 192 -16 223 -5 31 -12 102 -15 158 -4 56 -13 125 -20 152 -13 50 -32 242 -42 428 -5 89 -8 99 -28 107 -13 5 -26 23 -33 47 -9 30 -21 43 -59 64 -27 14 -84 46 -128 71 -44 25 -97 51 -117 57 -20 7 -42 19 -48 27 -22 25 -30 15 -24 -26 6 -38 5 -40 -19 -40 -20 0 -30 8 -42 33 -15 33 -68 67 -102 67 -14 0 -14 -2 2 -20 19 -20 14 -50 -7 -50 -23 0 -55 29 -62 55 -8 33 -25 31 -124 -14z m493 -131 c3 -5 -3 -10 -14 -10 -12 0 -21 5 -21 10 0 6 6 10 14 10 8 0 18 -4 21 -10z m252 -371 c7 -13 13 -49 13 -79 l0 -55 -30 59 c-30 58 -36 86 -23 100 11 11 27 1 40 -25z m-2197 -1768 c0 -19 -62 -61 -91 -61 -36 0 -37 13 -1 38 37 27 92 41 92 23z"/><path id="phjQSK4IW" d="M1485 4395 c-62 -25 -107 -67 -131 -121 -25 -59 3 -105 95 -154 53 -29 104 -39 115 -21 3 5 30 20 61 34 30 15 64 36 75 47 22 22 27 78 9 113 -14 28 -70 87 -82 87 -5 0 -20 9 -34 20 -32 25 -35 25 -108 -5z m147 -62 c36 -24 38 -28 23 -42 -14 -15 -18 -14 -46 1 -30 17 -31 17 -52 -6 -17 -18 -27 -21 -44 -15 -28 10 -47 -16 -31 -44 7 -14 16 -17 37 -12 39 8 51 -22 19 -47 -37 -28 -82 -23 -112 13 -36 42 -34 81 7 125 52 58 139 69 199 27z m36 -107 c5 -24 -38 -68 -62 -64 -31 5 -30 26 3 59 33 32 54 34 59 5z"/><path id="pNjZmHfT9" d="M6450 4355 c-19 -14 -39 -25 -45 -25 -31 0 -97 -63 -121 -116 -14 -30 -32 -58 -40 -61 -17 -6 -18 -42 -3 -94 9 -29 9 -75 0 -187 -12 -157 -24 -217 -48 -244 -8 -9 -16 -38 -18 -65 -7 -97 -8 -183 -2 -190 22 -22 98 119 123 228 14 61 15 84 5 135 -23 128 -8 158 38 75 l24 -44 56 6 c71 6 203 57 252 97 21 16 42 30 47 30 6 0 19 -16 31 -36 26 -44 28 -137 5 -309 -38 -297 -93 -484 -186 -639 -23 -38 -53 -101 -68 -140 -14 -39 -38 -95 -54 -125 -31 -61 -209 -250 -293 -312 -41 -31 -52 -45 -52 -67 0 -15 0 -63 0 -107 -1 -44 4 -125 10 -180 22 -204 22 -200 5 -214 -17 -14 -22 -66 -7 -75 5 -3 12 -58 16 -121 6 -103 5 -118 -10 -135 -14 -15 -16 -28 -10 -57 4 -21 7 -51 6 -68 -1 -16 -3 -66 -5 -110 -5 -103 -24 -231 -42 -274 -28 -66 -12 -104 38 -94 46 9 76 120 50 189 -15 39 -14 44 3 70 16 25 19 55 21 269 5 353 4 448 -7 565 -6 58 -12 142 -15 188 l-5 83 31 27 c95 81 148 133 187 187 24 33 70 87 102 120 130 135 252 354 287 515 8 36 19 88 25 115 6 28 12 74 14 103 1 29 9 69 18 90 17 43 47 169 47 202 0 22 -1 22 -26 5 l-25 -16 7 138 c7 139 1 205 -32 357 -21 97 -52 152 -130 227 -106 102 -154 121 -204 84z"/><path id="p7Kqiq6oI" d="M3920 3137 c0 -8 13 -48 29 -88 16 -41 53 -135 81 -209 29 -74 60 -151 70 -170 55 -108 169 -237 190 -216 17 17 11 34 -20 57 -17 13 -32 35 -35 53 -6 28 -27 78 -62 148 -7 14 -13 32 -13 40 0 20 -106 221 -162 308 -50 76 -78 104 -78 77z"/><path id="p16qMgj3AP" d="M4190 2743 c0 -5 7 -18 15 -29 12 -16 14 -16 15 -3 0 9 -7 22 -15 29 -8 7 -15 8 -15 3z"/><path id="p2lrRpZkw" d="M4261 2366 c-6 -14 -25 -30 -48 -39 -38 -15 -40 -19 -60 -94 -11 -43 -28 -98 -36 -123 -21 -60 -32 -104 -57 -240 -46 -239 -48 -261 -43 -334 4 -57 2 -81 -11 -106 -22 -45 -21 -50 20 -131 39 -79 41 -119 7 -134 -13 -5 -23 -14 -23 -20 1 -21 37 -76 86 -132 27 -32 49 -65 47 -74 -3 -10 -37 -29 -89 -49 -52 -21 -102 -48 -129 -72 -38 -34 -45 -45 -45 -77 0 -48 26 -135 44 -151 8 -6 27 -43 42 -81 27 -69 28 -70 59 -65 25 5 36 1 55 -19 18 -19 31 -24 54 -21 17 3 56 8 86 11 86 9 101 26 119 136 l16 93 45 15 c25 9 50 19 55 22 6 4 26 -3 45 -16 27 -17 38 -33 48 -69 14 -54 26 -58 41 -15 8 24 15 30 28 24 10 -4 61 -18 113 -31 86 -22 112 -36 123 -68 2 -7 17 -6 45 3 23 8 61 15 85 15 42 1 42 1 47 -38 7 -54 26 -56 46 -7 18 46 22 48 65 25 28 -14 32 -14 50 2 10 9 19 22 19 29 0 8 33 14 103 18 84 4 105 3 119 -10 16 -14 21 -13 54 12 32 25 44 28 122 29 98 1 92 9 77 -94 l-7 -46 70 -73 70 -72 45 6 c33 5 55 2 81 -10 51 -24 82 -13 143 51 59 64 109 153 119 210 5 37 1 47 -52 125 -31 46 -61 85 -65 87 -4 2 -19 14 -34 28 -29 27 -57 31 -75 10 -6 -8 -46 -23 -88 -32 -42 -9 -94 -25 -117 -34 -22 -10 -59 -21 -82 -25 -39 -6 -43 -10 -43 -35 0 -38 -19 -52 -58 -40 -18 5 -44 5 -60 1 -15 -5 -68 -12 -117 -16 -61 -5 -96 -12 -108 -23 -10 -9 -37 -18 -60 -19 -23 -1 -46 -3 -52 -3 -58 -6 -336 10 -354 19 -12 7 -42 14 -67 16 -25 2 -56 11 -69 19 -13 9 -42 18 -65 22 -30 5 -48 16 -70 42 -28 34 -31 35 -64 25 -31 -10 -35 -8 -47 14 -7 13 -23 26 -36 28 -13 3 -34 7 -48 10 -15 3 -34 20 -45 38 -15 24 -28 33 -56 37 -41 6 -41 5 -83 105 -16 39 -46 92 -67 120 -33 44 -36 53 -26 78 7 19 8 37 1 54 -11 30 1 43 39 43 32 0 24 20 -21 49 -25 16 -37 32 -37 47 0 12 -5 35 -10 50 -8 19 -7 37 1 61 9 29 15 34 34 29 20 -5 23 -1 34 51 6 31 11 72 11 92 0 21 13 59 30 90 26 47 28 56 15 64 -12 6 -13 13 -5 28 9 16 7 19 -8 19 -15 0 -19 8 -21 47 -1 50 28 108 62 119 32 10 37 37 25 133 -11 88 -10 92 10 114 12 13 22 28 22 33 0 5 9 27 21 48 11 21 18 45 15 52 -9 23 -46 16 -55 -10z m-121 -661 c0 -8 -4 -15 -10 -15 -5 0 -10 7 -10 15 0 8 5 15 10 15 6 0 10 -7 10 -15z m-31 -89 c14 -58 14 -77 -4 -100 -23 -30 -38 -7 -37 58 1 102 21 122 41 42z m1621 -1001 c-7 -8 -17 -15 -22 -15 -6 0 -5 7 2 15 7 8 17 15 22 15 6 0 5 -7 -2 -15z"/><path id="pOlzwKGhT" d="M4776 2239 c-23 -18 -30 -19 -61 -9 -49 16 -86 5 -145 -43 -44 -35 -51 -46 -48 -72 3 -34 31 -42 36 -10 9 49 80 87 131 70 17 -5 21 -15 21 -50 0 -52 -15 -70 -67 -80 -41 -7 -108 -39 -118 -55 -4 -6 -24 -21 -44 -35 -36 -22 -39 -28 -51 -99 -19 -112 -1 -186 66 -265 36 -43 65 -57 163 -76 77 -16 88 -16 149 -1 83 20 108 37 127 84 9 20 34 55 56 78 l40 41 -21 69 c-43 138 -98 216 -183 256 -65 31 -81 63 -54 107 26 42 65 53 114 31 35 -16 44 -26 60 -69 21 -60 37 -61 41 -3 3 35 -2 46 -35 83 -62 68 -128 87 -177 48z"/><path id="pPmH58jFz" d="M4385 1407 c-34 -19 -40 -28 -43 -59 -4 -45 21 -101 51 -117 17 -9 32 -8 67 2 58 16 76 49 60 106 -21 80 -70 104 -135 68z"/><path id="pw0LOu9a1" d="M4107 1385 c-7 -16 8 -29 23 -20 15 9 12 35 -4 35 -8 0 -16 -7 -19 -15z"/><path id="pempr1eJ9" d="M5090 1332 c-44 -44 -50 -74 -25 -122 19 -36 49 -46 78 -27 72 48 84 89 44 148 -32 47 -51 47 -97 1z"/><path id="pKUrE9yCD" d="M4646 702 c-3 -5 4 -18 15 -28 21 -19 21 -19 18 5 -4 25 -23 39 -33 23z"/></g></g></svg>