<svg id="svg" version="1.1" width="100" height="100" xmlns="http://www.w3.org/2000/svg"><path d="M24.665 22.562 C 15.406 24.121,12.372 25.866,10.299 30.826 C 8.910 34.151,8.924 35.247,10.449 42.498 C 13.856 58.698,13.497 58.000,18.436 58.000 L 22.795 58.000 23.897 64.332 C 24.504 67.814,25.000 71.414,25.000 72.332 C 25.000 73.846,27.358 74.000,50.500 74.000 C 73.642 74.000,76.000 73.846,76.000 72.332 C 76.000 71.414,76.496 67.814,77.103 64.332 L 78.205 58.000 82.564 58.000 C 87.503 58.000,87.144 58.698,90.551 42.498 C 92.076 35.247,92.090 34.151,90.701 30.826 C 88.609 25.820,85.637 24.149,76.130 22.637 L 68.020 21.346 63.866 28.222 C 59.369 35.665,56.177 38.000,50.500 38.000 C 44.788 38.000,41.634 35.670,37.030 28.049 C 34.687 24.172,32.710 21.055,32.635 21.122 C 32.561 21.189,28.974 21.837,24.665 22.562 M34.109 33.853 C 42.564 47.517,58.530 47.476,66.891 33.769 L 70.500 27.854 75.855 28.448 C 85.965 29.570,87.111 31.636,84.451 43.947 L 82.711 52.000 77.959 52.000 L 73.207 52.000 72.000 60.500 L 70.793 69.000 50.500 69.000 L 30.207 69.000 29.000 60.500 L 27.793 52.000 23.051 52.000 L 18.308 52.000 16.654 44.472 C 15.744 40.331,15.000 36.142,15.000 35.163 C 15.000 30.958,19.620 28.353,27.500 28.113 C 30.114 28.034,30.964 28.772,34.109 33.853 " stroke="none" fill="black" fill-rule="evenodd"/></svg>